<svg width="32" height="32" viewBox="0 0 32 32" fill="none" xmlns="http://www.w3.org/2000/svg">
<path d="M18.8205 16.0044L31.3902 3.43424C31.581 3.24998 31.7331 3.02957 31.8378 2.78587C31.9425 2.54217 31.9976 2.28006 31.9999 2.01484C32.0022 1.74961 31.9517 1.48658 31.8513 1.2411C31.7508 0.995618 31.6025 0.772596 31.4149 0.585047C31.2274 0.397499 31.0044 0.24918 30.7589 0.148745C30.5134 0.0483099 30.2504 -0.0022293 29.9851 7.54189e-05C29.7199 0.00238014 29.4578 0.0574831 29.2141 0.162169C28.9704 0.266855 28.75 0.419027 28.5657 0.609807L15.9955 13.1794L3.42578 0.609807C3.04981 0.242096 2.54399 0.0374869 2.0181 0.0403831C1.49221 0.0432792 0.988684 0.253447 0.616787 0.625276C0.244889 0.997105 0.0346317 1.50059 0.0316426 2.02648C0.0286535 2.55236 0.233174 3.05821 0.600821 3.43424L13.171 16.0044L0.600821 28.5745C0.411944 28.7592 0.261589 28.9796 0.158462 29.2228C0.0553355 29.4661 0.00148525 29.7273 3.02928e-05 29.9915C-0.00142466 30.2557 0.0495446 30.5176 0.149986 30.7619C0.250428 31.0063 0.398346 31.2283 0.585177 31.4151C0.772008 31.6019 0.99404 31.7498 1.23842 31.8501C1.48279 31.9505 1.74466 32.0015 2.00885 32C2.27304 31.9985 2.53431 31.9446 2.77753 31.8414C3.02074 31.7382 3.24108 31.5878 3.42578 31.3989L15.9955 18.8293L28.5657 31.3989C28.9557 31.7889 29.4671 31.9842 29.978 31.9842C30.4888 31.9842 31.0007 31.7889 31.3902 31.3989C31.7647 31.0243 31.975 30.5164 31.975 29.9867C31.975 29.4571 31.7647 28.9491 31.3902 28.5745L18.8205 16.0044Z" fill="black"/>
</svg>
