<svg width="300" height="350" viewBox="0 0 300 350" fill="none" xmlns="http://www.w3.org/2000/svg">
<rect x="1" y="1" width="298" height="348" rx="20" fill="#F0E0FA" stroke="#303030" stroke-width="2"/>
<path d="M109.299 139.25L109.295 139.25C109.289 139.25 109.283 139.249 109.277 139.246L109.274 139.244C108.764 138.962 108.24 138.711 107.705 138.492C107.174 138.273 106.624 138.06 106.089 137.889L106.132 137.896L106.124 137.896C106.111 137.897 106.098 137.895 106.085 137.891L106.074 137.887C103.248 136.922 100.312 136.384 97.3512 136.288C95.8753 136.24 94.3982 136.291 92.9281 136.441L88.4723 136.851C85.5008 137.112 82.5238 137.299 79.5481 137.505C76.5718 137.701 73.5967 137.914 70.6259 138.183L70.6895 137.936C71.2152 138.351 71.6961 138.831 72.1231 139.364C72.5456 139.903 72.9057 140.497 73.1953 141.132C73.4755 141.772 73.6976 142.439 73.8584 143.125C74.0107 143.813 74.1084 144.514 74.1505 145.22C74.2227 146.631 74.1355 148.046 73.8909 149.434C73.6595 150.828 73.2964 152.192 72.8073 153.505L72.4535 153.009C74.5439 152.579 76.6336 152.145 78.7266 151.732L85.0033 150.478L84.6604 150.814L84.7058 150.668L84.692 150.707C84.9957 149.662 85.6212 148.761 86.4631 148.159C87.2998 147.557 88.2923 147.266 89.2933 147.327C90.2986 147.397 91.2524 147.836 91.9992 148.572C92.0967 148.657 92.1847 148.755 92.2615 148.862L92.504 149.172C92.6495 149.391 92.7835 149.618 92.9056 149.853C93.0217 150.086 93.101 150.326 93.1996 150.562C93.2455 150.681 93.2956 150.798 93.3378 150.918L93.4413 151.285C93.9409 153.221 94.1329 155.237 94.0091 157.244C93.927 159.224 93.6717 161.191 93.2467 163.119L92.933 162.776L97.1524 161.816L101.381 160.895C101.391 160.893 101.402 160.895 101.411 160.902C101.42 160.908 101.427 160.918 101.429 160.93C101.432 160.941 101.43 160.953 101.424 160.963C101.419 160.973 101.41 160.981 101.399 160.984L97.229 162.174L93.0515 163.331C93.0094 163.342 92.9654 163.342 92.9234 163.33C92.8814 163.319 92.8429 163.296 92.8113 163.263C92.7797 163.231 92.756 163.19 92.7426 163.146C92.7291 163.101 92.7263 163.053 92.7343 163.006L92.7376 162.988C93.0748 161.086 93.2674 159.157 93.3134 157.22C93.3892 155.309 93.1659 153.397 92.6531 151.567L92.5542 151.233C92.5147 151.125 92.4682 151.021 92.4257 150.915C92.3357 150.708 92.2601 150.484 92.1598 150.29C92.046 150.109 91.9568 149.907 91.8277 149.741L91.6299 149.495C91.5691 149.408 91.4978 149.331 91.4179 149.265C90.8131 148.685 90.0463 148.344 89.2413 148.297C88.4326 148.246 87.6304 148.48 86.9533 148.964C86.279 149.449 85.7745 150.166 85.5212 151.001L85.5074 151.041C85.5052 151.053 85.502 151.064 85.4977 151.075L85.4697 151.144C85.4413 151.213 85.3978 151.274 85.3428 151.32C85.2879 151.367 85.2233 151.398 85.1546 151.411L78.8626 152.571C76.766 152.962 74.6661 153.333 72.5669 153.708C72.5086 153.719 72.4488 153.712 72.3939 153.688C72.3389 153.665 72.2908 153.626 72.2545 153.575C72.2183 153.524 72.1953 153.464 72.188 153.4C72.1807 153.336 72.1893 153.271 72.213 153.212C72.7118 151.958 73.1008 150.654 73.3748 149.32C73.6598 147.984 73.788 146.613 73.7563 145.242C73.7356 144.558 73.6612 143.878 73.5336 143.208C73.3985 142.541 73.1954 141.892 72.9281 141.274C72.6557 140.659 72.315 140.082 71.9137 139.557C71.5061 139.036 71.0458 138.567 70.5417 138.158L70.5382 138.155C70.5182 138.138 70.5033 138.115 70.4956 138.088C70.4878 138.062 70.4876 138.034 70.4948 138.007C70.5021 137.981 70.5165 137.957 70.5362 137.94C70.5559 137.923 70.58 137.912 70.6053 137.91C73.5766 137.647 76.5438 137.33 79.5094 136.992C82.4759 136.665 85.4408 136.319 88.4114 136.047L92.8686 135.657C94.3689 135.517 95.8763 135.492 97.3798 135.581C98.8827 135.672 100.377 135.886 101.851 136.221C103.323 136.545 104.768 136.997 106.174 137.572L106.124 137.562L106.132 137.563L106.144 137.563C106.155 137.563 106.165 137.566 106.176 137.57C106.733 137.786 107.254 138.027 107.785 138.285C108.312 138.541 108.824 138.835 109.316 139.165L109.295 139.159L109.299 139.159C109.31 139.16 109.32 139.164 109.327 139.173C109.335 139.181 109.339 139.193 109.339 139.204C109.339 139.216 109.335 139.227 109.327 139.236C109.32 139.244 109.31 139.249 109.299 139.25L109.299 139.25ZM127.52 151.339C127.283 150.044 126.806 148.815 126.119 147.727C125.776 147.205 125.382 146.725 124.944 146.297C124.499 145.875 124.023 145.494 123.52 145.158C122.487 144.5 121.385 143.981 120.237 143.611C119.073 143.227 117.883 142.945 116.678 142.767L116.655 142.765C116.243 142.64 115.833 142.506 115.424 142.365C115.853 142.387 116.28 142.421 116.706 142.462L116.683 142.459C117.941 142.399 119.201 142.53 120.426 142.847C121.67 143.152 122.86 143.676 123.95 144.398C125.061 145.127 125.986 146.148 126.64 147.367C127.269 148.575 127.574 149.951 127.52 151.339V151.339Z" fill="black"/>
<path d="M88.0804 147.604C88.8061 147.298 89.5398 147.032 90.2787 146.791C91.0169 146.546 91.7589 146.32 92.5047 146.113C93.2483 145.895 94.0001 145.717 94.7491 145.524C95.5021 145.352 96.2537 145.172 97.0124 145.028L97.1878 144.995L97.298 145.086C97.6091 145.348 97.8961 145.642 98.155 145.964C98.412 146.27 98.6481 146.596 98.8615 146.94C99.0753 147.28 99.2672 147.635 99.4357 148.003C99.6056 148.368 99.7493 148.746 99.8654 149.135C99.6481 148.804 99.4243 148.483 99.194 148.174C98.9605 147.864 98.7248 147.555 98.479 147.275C98.2281 146.991 97.9713 146.716 97.7046 146.458C97.444 146.208 97.1711 145.974 96.8871 145.757L97.1725 145.815C96.4288 146.032 95.678 146.215 94.9292 146.408C94.1762 146.579 93.4261 146.765 92.6678 146.911C91.9119 147.069 91.152 147.207 90.388 147.325C89.6249 147.448 88.8567 147.546 88.0804 147.604ZM77.5163 137.429C78.4058 138.324 79.1057 139.42 79.5676 140.639C80.0505 141.858 80.3552 143.152 80.4706 144.474C80.5671 145.792 80.4928 147.119 80.2499 148.415C80.2205 148.576 80.1981 148.738 80.163 148.898L80.0388 149.371L79.7779 150.309C79.5672 150.921 79.3206 151.517 79.0621 152.099C79.1463 151.45 79.2852 150.828 79.382 150.198L79.504 149.252L79.5713 148.783C79.5894 148.626 79.5949 148.467 79.6073 148.31C79.6274 147.995 79.6505 147.681 79.6809 147.369C79.7024 147.056 79.6911 146.741 79.6981 146.428C79.711 145.803 79.6922 145.178 79.6418 144.555C79.5361 143.311 79.3084 142.082 78.9625 140.89C78.6141 139.675 78.1283 138.513 77.5163 137.429V137.429Z" fill="black"/>
<path d="M100.09 146.862C100.712 146.609 101.339 146.361 101.969 146.125C101.934 146.405 101.915 146.687 101.914 146.97C101.374 147.154 100.83 147.33 100.283 147.501C99.9127 147.617 99.5424 147.733 99.1683 147.849C99.1171 147.763 99.0659 147.681 99.0147 147.604C98.9634 147.523 98.9083 147.446 98.861 147.373C99.2707 147.197 99.6803 147.03 100.09 146.862ZM106.298 145.413C105.817 145.593 105.344 145.773 104.864 145.949H104.86C104.71 145.691 104.536 145.451 104.34 145.233L104.517 145.169C105.049 144.98 105.581 144.791 106.112 144.607C106.175 144.899 106.242 145.169 106.298 145.413ZM103.592 142.587C104.383 142.309 105.175 142.03 105.971 141.76C105.885 142.048 105.843 142.349 105.849 142.652C105.183 142.909 104.509 143.153 103.84 143.402C102.355 143.93 100.862 144.448 99.3573 144.916C98.6601 145.139 97.959 145.352 97.254 145.555C96.4426 145.79 95.6312 146.013 94.808 146.206C95.1349 146.048 95.4618 145.889 95.7927 145.735C95.7966 145.735 95.7966 145.735 95.8005 145.73C96.9113 145.216 98.0378 144.74 99.1643 144.281C100.63 143.681 102.111 143.132 103.592 142.587ZM109.787 141.07C109.72 141.1 109.653 141.13 109.587 141.155C109.414 140.998 109.22 140.873 109.011 140.782C109.224 140.718 109.437 140.654 109.65 140.589C109.701 140.769 109.748 140.932 109.787 141.07ZM72.5109 153.357C63.6185 144.521 70.6171 138.048 70.6171 138.048C76.8323 142.948 72.5109 153.357 72.5109 153.357ZM92.9916 163.052C85.6536 165.435 85.0794 150.944 85.0794 150.944C85.088 150.914 85.0967 150.885 85.1054 150.855C86.2087 147.166 90.9379 146.689 92.5694 150.138C94.7802 154.813 92.9916 163.052 92.9916 163.052ZM98.5266 161.321C97.3112 164.581 96.0678 167.808 94.9237 171.064C93.7544 174.28 92.769 177.571 91.9733 180.92C91.7855 181.742 91.6413 182.575 91.5414 183.414C91.4329 184.227 91.4362 185.053 91.5514 185.865C91.6119 186.247 91.7309 186.615 91.9035 186.954C92.0795 187.276 92.3235 187.548 92.6152 187.747C93.2812 188.114 94.0383 188.238 94.7739 188.098C96.3362 187.803 97.8393 187.214 99.2158 186.357C99.5653 186.146 99.9154 185.938 100.261 185.718L101.281 185.027C101.97 184.582 102.615 184.062 103.276 183.573C103.934 183.079 104.56 182.535 105.202 182.02L106.134 181.203C106.445 180.93 106.764 180.671 107.063 180.384C107.665 179.814 108.291 179.28 108.877 178.692L109.769 177.83L110.638 176.94C111.792 175.749 112.903 174.512 113.969 173.227C115.043 171.952 116.074 170.634 117.08 169.295C119.098 166.61 120.977 163.804 122.708 160.891C123.576 159.432 124.41 157.946 125.208 156.432C126.007 154.92 126.772 153.379 127.469 151.8L127.626 151.861C126.683 155.251 125.413 158.522 123.836 161.62C122.279 164.742 120.482 167.715 118.465 170.506C116.425 173.287 114.161 175.864 111.7 178.205L110.776 179.079L109.826 179.92C109.197 180.486 108.538 181.012 107.88 181.536C107.221 182.058 106.536 182.542 105.857 183.031C105.159 183.49 104.479 183.975 103.769 184.408C103.059 184.842 102.359 185.289 101.636 185.692C100.919 186.104 100.204 186.52 99.4714 186.906C98.0122 187.727 96.4558 188.324 94.8465 188.681C93.9882 188.878 93.0949 188.78 92.29 188.401C91.8745 188.174 91.515 187.842 91.2416 187.432C90.9845 187.027 90.7883 186.58 90.6601 186.108C90.433 185.204 90.3333 184.266 90.3644 183.329C90.3872 182.42 90.471 181.514 90.6151 180.618C90.9092 178.858 91.3406 177.128 91.9045 175.447C92.4448 173.77 93.0623 172.131 93.7327 170.522C94.061 169.714 94.418 168.921 94.7774 168.13C95.1337 167.338 95.5095 166.556 95.8964 165.781C96.6674 164.231 97.48 162.706 98.3799 161.235L98.5266 161.321ZM78.9495 139.926C81.2179 139.555 83.4924 139.272 85.769 139.021C88.0453 138.765 90.3251 138.561 92.6057 138.367C94.8874 138.191 97.1699 138.025 99.456 137.913C101.742 137.794 104.03 137.708 106.324 137.712C104.055 138.084 101.781 138.367 99.5041 138.618C97.2279 138.874 94.948 139.078 92.6673 139.271C90.3855 139.446 88.103 139.612 85.817 139.724C83.5313 139.842 81.2434 139.929 78.9495 139.926Z" fill="black"/>
<path d="M106.81 181.525C106.484 178.376 106.17 175.222 105.889 172.064L105.781 170.88L105.727 170.288C105.722 170.242 105.72 170.182 105.712 170.147C105.702 170.119 105.694 170.09 105.688 170.061C105.661 169.982 105.63 169.904 105.595 169.829C105.274 169.166 104.852 168.502 104.461 167.84C103.662 166.515 102.892 165.157 102.203 163.742C101.862 163.033 101.541 162.309 101.261 161.562C100.983 160.806 100.751 160.053 100.51 159.31C100.026 157.817 99.546 156.323 99.0842 154.822L98.3834 152.574L98.2082 152.012C98.1399 151.799 98.0941 151.579 98.0717 151.355C98.0229 150.899 98.0819 150.437 98.2431 150.013C98.4036 149.562 98.7088 149.19 99.1021 148.965C99.5088 148.77 99.9679 148.75 100.388 148.908C101.109 149.203 101.768 149.656 102.323 150.238L101.89 150.503C101.789 149.738 101.725 148.969 101.697 148.197C101.683 147.812 101.681 147.422 101.695 147.037C101.725 146.648 101.74 146.253 101.8 145.868C101.852 145.457 101.986 145.064 102.194 144.716C102.318 144.521 102.501 144.38 102.712 144.317C102.913 144.271 103.122 144.284 103.318 144.353C104.026 144.615 104.62 145.152 104.986 145.861L104.86 145.786H104.864L104.945 145.787L104.989 145.859C105.231 146.282 105.45 146.719 105.645 147.169C105.735 147.383 105.841 147.589 105.962 147.784C106.037 147.88 106.036 147.879 106.142 147.886C106.175 147.889 106.208 147.882 106.238 147.864C106.267 147.846 106.29 147.82 106.305 147.787C106.379 147.582 106.408 147.361 106.391 147.141C106.386 146.9 106.368 146.66 106.339 146.421C106.283 145.938 106.195 145.461 106.078 144.991C105.958 144.513 105.862 144.028 105.789 143.539C105.706 143.039 105.7 142.527 105.77 142.025C105.814 141.764 105.903 141.515 106.032 141.291C106.167 141.064 106.352 140.876 106.57 140.746C107.001 140.517 107.48 140.416 107.958 140.455L107.933 140.456C108.137 140.435 108.342 140.442 108.544 140.478C108.744 140.513 108.94 140.573 109.127 140.658C109.506 140.83 109.834 141.112 110.077 141.473L110.061 141.454C110.093 141.49 110.111 141.538 110.113 141.588L110.11 142.319L109.802 141.668L109.798 141.66L109.794 141.652L109.788 141.631C109.236 140.039 108.864 138.38 108.681 136.691C108.642 136.253 108.648 135.812 108.697 135.376C108.735 134.889 108.928 134.432 109.244 134.086C109.429 133.912 109.654 133.798 109.895 133.756C110.129 133.727 110.366 133.753 110.589 133.833C110.988 133.996 111.352 134.245 111.66 134.565C112.239 135.164 112.748 135.838 113.175 136.573C113.606 137.287 114.001 138.025 114.36 138.784C115.108 140.289 115.698 141.881 116.119 143.53C116.521 145.163 116.9 146.78 117.414 148.341C117.934 149.883 118.56 151.435 119.557 152.559C120.02 153.111 120.639 153.476 121.317 153.597C121.664 153.636 122.015 153.621 122.359 153.551C122.725 153.496 123.087 153.415 123.444 153.308C124.159 153.098 124.848 152.795 125.498 152.407C126.14 152.025 126.733 151.553 127.262 151.002L127.688 150.543L127.914 151.105C128.16 151.737 128.309 152.408 128.356 153.092C128.407 153.756 128.385 154.423 128.291 155.081C128.091 156.382 127.658 157.628 127.018 158.748C126.7 159.317 126.313 159.837 125.868 160.294C125.415 160.732 124.92 161.116 124.392 161.439C123.872 161.757 123.34 162.021 122.852 162.317C122.375 162.569 121.967 162.951 121.669 163.428C121.421 163.944 121.289 164.517 121.286 165.1C121.248 165.72 121.226 166.346 121.22 166.973C121.205 168.228 121.227 169.487 121.269 170.745C121.313 172.002 121.358 173.262 121.433 174.519C121.515 175.774 121.578 177.038 121.772 178.274L121.696 178.293C121.448 177.052 121.334 175.795 121.2 174.541C121.077 173.284 120.966 172.027 120.89 170.766C120.813 169.505 120.755 168.242 120.734 166.974C120.723 166.34 120.727 165.704 120.747 165.065C120.737 164.383 120.879 163.709 121.16 163.099C121.502 162.518 121.978 162.045 122.541 161.727C123.059 161.399 123.579 161.13 124.064 160.819C124.541 160.514 124.987 160.154 125.394 159.746C125.786 159.329 126.124 158.856 126.399 158.34C126.969 157.3 127.346 156.15 127.512 154.953C127.594 154.363 127.612 153.765 127.564 153.171C127.522 152.595 127.398 152.03 127.197 151.496L127.849 151.598C126.674 152.827 125.233 153.712 123.66 154.171C123.271 154.288 122.876 154.378 122.476 154.44C122.272 154.464 122.086 154.506 121.867 154.515L121.54 154.525C121.43 154.518 121.32 154.505 121.211 154.493C120.347 154.354 119.553 153.894 118.965 153.192C117.818 151.858 117.207 150.226 116.678 148.625C116.163 147.01 115.794 145.357 115.412 143.736C115.315 143.332 115.217 142.929 115.1 142.548C114.98 142.159 114.845 141.772 114.704 141.387C114.421 140.617 114.109 139.856 113.769 139.112C113.433 138.368 113.061 137.643 112.655 136.942C112.264 136.246 111.801 135.602 111.273 135.024C111.028 134.753 110.736 134.538 110.415 134.39C110.271 134.333 110.119 134.31 109.967 134.322C109.824 134.343 109.689 134.406 109.576 134.504C109.343 134.761 109.199 135.097 109.167 135.455C109.112 135.853 109.097 136.257 109.123 136.658C109.266 138.319 109.595 139.954 110.102 141.528L110.092 141.5L110.096 141.508L109.785 141.589C109.784 141.611 109.788 141.632 109.795 141.652C109.803 141.672 109.814 141.691 109.829 141.706L109.813 141.686C109.612 141.368 109.333 141.116 109.009 140.958C108.682 140.802 108.326 140.736 107.971 140.765L107.955 140.767L107.946 140.767C107.52 140.726 107.091 140.809 106.703 141.007C106.524 141.119 106.369 141.274 106.252 141.459C106.135 141.645 106.058 141.858 106.027 142.08C105.959 142.551 105.962 143.03 106.036 143.5C106.104 143.982 106.195 144.459 106.309 144.93C106.43 145.409 106.523 145.895 106.588 146.387C106.62 146.635 106.641 146.884 106.65 147.135C106.673 147.406 106.634 147.68 106.536 147.931C106.496 148.004 106.44 148.065 106.373 148.109C106.305 148.152 106.229 148.177 106.151 148.181C106.073 148.185 105.995 148.168 105.925 148.131C105.854 148.094 105.793 148.039 105.747 147.97C105.612 147.761 105.493 147.539 105.392 147.308C105.197 146.871 104.979 146.448 104.739 146.039L104.864 146.112L104.86 146.112L104.779 146.112L104.734 146.037C104.407 145.403 103.87 144.929 103.233 144.71C103.103 144.649 102.958 144.64 102.823 144.685C102.688 144.729 102.571 144.824 102.494 144.953C102.331 145.255 102.23 145.591 102.197 145.939C102.15 146.306 102.149 146.676 102.13 147.046C102.126 147.422 102.139 147.795 102.162 148.17C102.211 148.92 102.293 149.667 102.41 150.408L102.531 151.172L101.977 150.673C101.469 150.167 100.872 149.778 100.223 149.527C99.9467 149.426 99.6453 149.442 99.3793 149.573C99.1306 149.736 98.9415 149.988 98.8438 150.286C98.7285 150.599 98.6888 150.939 98.7283 151.273C98.7467 151.443 98.7829 151.61 98.8363 151.771L99.0165 152.332L99.7374 154.576C100.223 156.07 100.691 157.571 101.155 159.074C101.39 159.827 101.614 160.579 101.869 161.296C102.132 162.019 102.437 162.728 102.763 163.426C103.418 164.822 104.178 166.162 104.941 167.509C105.318 168.191 105.714 168.843 106.053 169.592C106.097 169.695 106.135 169.8 106.167 169.908C106.182 169.975 106.195 170.043 106.206 170.111C106.215 170.173 106.214 170.213 106.219 170.265L106.257 170.856L106.334 172.04C106.545 175.195 106.723 178.354 106.888 181.517L106.81 181.525Z" fill="black"/>
<path d="M111.556 146.206L109.766 141.665L110.134 141.514L111.556 146.206Z" fill="black"/>
<path d="M169.878 130.694C168.426 131.364 166.912 131.927 165.397 132.443C163.874 132.955 162.325 133.374 160.76 133.699C159.185 134.05 157.582 134.224 155.975 134.218C155.159 134.21 154.346 134.119 153.546 133.947C152.722 133.776 151.933 133.443 151.218 132.966L151.253 132.987C150.051 132.334 148.842 131.695 147.646 131.027L147.247 130.805L147.487 130.429C147.516 130.378 147.552 130.333 147.594 130.295C147.615 130.274 147.636 130.255 147.659 130.238C147.695 130.211 147.738 130.176 147.77 130.157C147.836 130.118 147.908 130.069 147.971 130.039C148.101 129.969 148.229 129.909 148.355 129.857C148.61 129.749 148.862 129.654 149.115 129.572C149.62 129.397 150.129 129.266 150.637 129.136C151.653 128.881 152.673 128.665 153.697 128.489C154.719 128.302 155.743 128.137 156.768 127.986C157.793 127.828 158.82 127.696 159.846 127.556L159.707 127.64L161.805 125.026C162.505 124.153 163.18 123.268 163.904 122.405C165.367 120.698 167.062 119.246 168.929 118.098C169.866 117.531 170.839 117.039 171.842 116.625C172.849 116.223 173.879 115.894 174.926 115.64C177.024 115.059 179.197 114.872 181.352 115.086C183.534 115.379 185.614 116.262 187.403 117.653C189.182 119.065 190.632 120.912 191.634 123.046C192.131 124.112 192.518 125.235 192.789 126.393L192.964 127.269C193.013 127.559 193.06 127.846 193.101 128.137C193.186 128.717 193.255 129.3 193.308 129.887C193.423 131.064 193.45 132.249 193.387 133.431C193.328 134.631 193.127 135.818 192.789 136.962L192.653 137.406L192.241 137.272L186.685 135.453L181.113 133.688C179.255 133.099 177.393 132.528 175.523 131.995C174.59 131.72 173.653 131.462 172.713 131.219C172.242 131.112 171.773 130.975 171.298 130.893L170.586 130.754L169.878 130.694ZM169.858 130.601L170.6 130.61L171.325 130.7C171.81 130.755 172.284 130.866 172.765 130.947C173.719 131.137 174.671 131.341 175.618 131.569C177.511 132.026 179.395 132.522 181.275 133.034C183.155 133.545 185.024 134.099 186.895 134.648C188.764 135.205 190.633 135.754 192.494 136.346L191.947 136.656C192.571 134.548 192.567 132.237 192.379 129.986C192.329 129.421 192.263 128.857 192.181 128.294C192.142 128.013 192.097 127.731 192.05 127.452L191.887 126.632C191.644 125.544 191.294 124.487 190.841 123.481C189.923 121.465 188.583 119.711 186.928 118.361C185.258 117.023 183.313 116.148 181.263 115.815C179.181 115.547 177.073 115.657 175.024 116.141C172.945 116.544 170.938 117.304 169.079 118.393C167.219 119.49 165.54 120.915 164.108 122.611C162.716 124.34 161.39 126.163 160.045 127.951L159.994 128.018L159.906 128.034C158.888 128.214 157.869 128.388 156.854 128.585C155.839 128.776 154.825 128.979 153.818 129.204C152.81 129.426 151.806 129.664 150.814 129.932C150.319 130.066 149.826 130.214 149.347 130.377C149.105 130.456 148.87 130.547 148.644 130.644C148.529 130.692 148.421 130.744 148.319 130.799C148.263 130.825 148.227 130.854 148.179 130.881C148.162 130.892 148.146 130.904 148.13 130.917C148.121 130.924 148.113 130.929 148.119 130.926C148.124 130.916 148.104 130.951 148.157 130.867L147.999 130.268C149.202 130.919 150.392 131.598 151.589 132.263L151.608 132.274L151.624 132.285C152.866 133.166 154.454 133.42 155.99 133.48C156.77 133.501 157.55 133.476 158.328 133.405C159.109 133.343 159.889 133.241 160.667 133.109C162.224 132.855 163.764 132.471 165.298 132.057C166.833 131.637 168.343 131.149 169.858 130.601Z" fill="black"/>
<path d="M179.476 117.64C178.73 118.594 177.966 119.521 177.198 120.444L174.898 123.206C174.131 124.125 173.37 125.05 172.616 125.98C171.867 126.916 171.126 127.858 170.39 128.822C170.936 127.718 171.562 126.663 172.263 125.668C172.952 124.664 173.701 123.713 174.466 122.78C175.241 121.857 176.041 120.959 176.874 120.099C177.702 119.231 178.57 118.41 179.476 117.64ZM183.459 118.097C184.076 119.315 184.621 120.575 185.092 121.868C185.571 123.158 185.989 124.473 186.347 125.813C186.701 127.154 186.978 128.519 187.174 129.897C187.37 131.278 187.425 132.677 187.337 134.071C187.199 132.698 186.995 131.335 186.727 129.986C186.455 128.643 186.135 127.312 185.787 125.989C185.444 124.663 185.055 123.351 184.667 122.037C184.267 120.727 183.873 119.411 183.459 118.097ZM159.876 127.795C160.564 127.805 161.251 127.858 161.934 127.952C162.615 128.035 163.29 128.155 163.963 128.282C164.635 128.421 165.305 128.567 165.97 128.75C166.639 128.923 167.299 129.138 167.946 129.393C167.258 129.383 166.571 129.331 165.888 129.237C165.207 129.153 164.533 129.033 163.859 128.905C163.188 128.766 162.517 128.62 161.853 128.437C161.184 128.263 160.523 128.049 159.876 127.795V127.795ZM159.876 133.55C159.887 134.186 159.856 134.821 159.814 135.458C159.777 136.1 159.693 136.738 159.563 137.365C159.499 137.704 159.381 138.029 159.216 138.325C159.067 138.567 158.922 138.849 158.777 139.119C158.486 139.663 158.205 140.216 157.925 140.769C157.358 141.872 156.8 142.981 156.252 144.095C155.983 144.654 155.705 145.207 155.448 145.77C155.318 146.05 155.195 146.334 155.075 146.615C155.016 146.756 154.96 146.897 154.912 147.036C154.89 147.105 154.864 147.176 154.852 147.237C154.844 147.263 154.838 147.29 154.836 147.317C154.835 147.322 154.831 147.347 154.831 147.336C154.831 147.326 154.828 147.315 154.824 147.306C154.819 147.296 154.812 147.289 154.804 147.283L154.697 147.201C154.895 147.253 155.1 147.274 155.304 147.264C155.522 147.254 155.738 147.222 155.951 147.169C156.167 147.113 156.38 147.044 156.589 146.96C156.799 146.872 157.005 146.773 157.206 146.661L157.235 146.645L157.255 146.649C157.459 146.691 157.651 146.788 157.813 146.93C157.968 147.072 158.078 147.262 158.129 147.475C158.053 147.282 157.923 147.12 157.759 147.011C157.602 146.903 157.424 146.839 157.239 146.823L157.288 146.811C156.902 147.103 156.48 147.334 156.034 147.497C155.805 147.578 155.57 147.634 155.332 147.667C155.08 147.705 154.823 147.695 154.574 147.639L154.502 147.622L154.467 147.558C154.439 147.506 154.42 147.449 154.41 147.39C154.406 147.357 154.406 147.324 154.409 147.292C154.41 147.239 154.416 147.188 154.428 147.137C154.444 147.051 154.464 146.966 154.488 146.882C154.533 146.721 154.584 146.568 154.638 146.416C154.743 146.113 154.863 145.82 154.985 145.529C155.229 144.948 155.482 144.374 155.753 143.81C156.285 142.677 156.854 141.567 157.44 140.468C157.738 139.921 158.041 139.378 158.353 138.838C158.513 138.567 158.669 138.307 158.859 138.033C159.005 137.792 159.116 137.527 159.186 137.249C159.498 136.036 159.728 134.799 159.876 133.55V133.55Z" fill="black"/>
<path d="M161.343 149.056C159.666 146.241 157.247 147.475 157.247 147.475C157.247 147.475 156.312 161.455 162.042 161.835C166.403 162.124 170.155 159.242 172.793 156.138C174.159 154.522 175.024 152.479 175.264 150.299C175.622 147.114 176.16 142.304 176.297 140.917C176.506 138.787 177.299 133.21 180.14 133.55C180.14 133.55 186.079 133.614 183.005 144.796C183.005 144.796 182.166 151.794 187.616 150.957C187.616 150.957 186.498 147.458 187.966 144.796C189.433 142.134 191.362 138.768 191.271 136.457C191.271 136.457 172.034 130.267 169.868 130.648C171.201 131.414 172.274 132.625 172.928 134.104C173.582 135.582 173.783 137.25 173.502 138.863C172.863 143.385 169.788 149.453 168.362 152.084C168.136 152.503 167.809 152.849 167.418 153.082C167.026 153.316 166.583 153.43 166.136 153.412C165.31 153.376 164.362 153.244 163.911 152.859C163.02 152.098 161.343 149.056 161.343 149.056Z" fill="black"/>
<path d="M161.138 135.645C161.546 135.303 162.013 135.054 162.512 134.912C163.02 134.756 163.55 134.708 164.074 134.77C164.609 134.84 165.119 135.061 165.552 135.411C165.973 135.753 166.296 136.218 166.484 136.752C166.13 136.391 165.735 136.081 165.309 135.829C164.9 135.602 164.457 135.456 164.001 135.398C163.535 135.342 163.064 135.341 162.597 135.396C162.119 135.45 161.637 135.535 161.138 135.645ZM177.624 143.427C178.561 143.827 179.645 143.782 180.339 143.112C180.689 142.775 180.968 142.359 181.158 141.894C181.362 141.416 181.526 140.919 181.647 140.408C181.917 139.379 182.077 138.318 182.123 137.249C182.145 136.712 182.132 136.174 182.086 135.639C182.063 135.37 182.027 135.102 181.979 134.837C181.957 134.703 181.926 134.573 181.893 134.441C181.868 134.308 181.818 134.182 181.747 134.071C181.922 134.276 182.054 134.52 182.133 134.787C182.227 135.047 182.305 135.314 182.368 135.585C182.487 136.131 182.557 136.688 182.578 137.248C182.615 138.373 182.49 139.496 182.208 140.578C181.928 141.63 181.52 142.793 180.612 143.505C180.166 143.853 179.622 144.021 179.074 143.981C178.553 143.943 178.052 143.752 177.624 143.427V143.427ZM170.846 158.168C171.188 158.395 171.505 158.666 171.789 158.975C172.075 159.275 172.339 159.599 172.577 159.944C172.819 160.293 173.028 160.668 173.2 161.063C173.4 161.461 173.481 161.917 173.432 162.367C173.264 161.991 173.055 161.638 172.81 161.317C172.579 160.986 172.338 160.661 172.111 160.324C171.88 159.988 171.656 159.645 171.441 159.29C171.218 158.932 171.019 158.557 170.846 158.168V158.168ZM187.616 150.957C187.987 151.581 188.324 152.227 188.627 152.892C188.779 153.21 188.931 153.524 189.101 153.823C189.269 154.138 189.475 154.428 189.713 154.685C189.343 154.629 189.002 154.435 188.749 154.136C188.49 153.86 188.275 153.539 188.111 153.187C187.947 152.845 187.82 152.483 187.734 152.108C187.64 151.734 187.6 151.345 187.616 150.957V150.957Z" fill="black"/>
<path d="M196.143 149.358C196.143 149.358 189.403 149.894 188.265 152.823L188.47 153.243L189.222 152.823C192.838 150.863 194.882 153.466 192.369 153.925C189.852 154.379 174.865 161.853 174.865 161.853C168.366 163.855 164.557 174.613 164.557 174.613C165.605 174.125 166.672 173.687 167.732 173.22C168.819 172.838 169.898 172.427 170.997 172.088C173.204 171.41 175.454 170.912 177.729 170.6C180.007 170.281 182.309 170.203 184.602 170.368C185.173 170.437 185.744 170.476 186.315 170.566C186.879 170.673 187.45 170.746 188.009 170.892C189.134 171.132 190.23 171.514 191.274 172.028C190.188 171.674 189.074 171.432 187.946 171.303C187.387 171.209 186.82 171.179 186.26 171.123C185.697 171.085 185.134 171.063 184.57 171.033C182.315 170.996 180.06 171.135 177.823 171.449L176.145 171.685L174.475 172.006L173.64 172.157L172.813 172.354C172.258 172.487 171.706 172.615 171.151 172.74C170.048 173.018 168.953 173.336 167.846 173.623C166.751 173.949 165.664 174.309 164.557 174.613C147.51 177.658 130.876 189.068 129.761 188.763C128.643 188.459 127.662 178.876 127.662 176.41C127.662 173.949 127.244 169.288 123.889 169.288C120.537 169.288 120.954 172.482 120.954 172.482C127.244 174.309 112.71 175.681 108.377 176.286C104.045 176.895 106.42 175.072 106.42 175.072C106.42 175.072 105.163 173.61 103.816 175.428C103.396 176.015 103.112 176.703 102.99 177.435C102.868 178.167 102.911 178.92 103.115 179.63C103.544 181.191 104.179 183.558 104.604 185.415C105.305 188.459 107.818 210.366 108.657 212.497C109.496 214.623 126.823 220.253 163.718 217.363C166.708 216.853 169.686 216.313 172.663 215.773C175.637 215.219 178.611 214.653 181.561 213.997C183.038 213.676 184.515 213.341 185.977 212.96C187.446 212.595 188.903 212.191 190.349 211.746C191.795 211.304 193.22 210.783 194.618 210.186C196.034 209.631 197.353 208.817 198.518 207.78C198.005 208.391 197.416 208.922 196.769 209.358C196.129 209.808 195.463 210.213 194.776 210.571C193.396 211.271 191.978 211.876 190.53 212.385C187.638 213.385 184.696 214.204 181.719 214.838C178.745 215.481 175.757 216.013 172.754 216.433C169.753 216.866 166.739 217.183 163.718 217.363C163.718 217.363 162.375 226.252 161.674 234.249H214.226C214.171 226.441 214.159 216.094 214.38 206.79C214.797 188.841 214.38 180.394 214.38 180.394C213.624 180.303 212.878 180.136 212.15 179.896C211.422 179.669 210.709 179.399 209.996 179.12C208.574 178.563 207.187 177.911 205.809 177.242C204.438 176.56 203.083 175.848 201.748 175.081C200.413 174.322 199.093 173.52 197.817 172.637C199.239 173.203 200.629 173.833 202.012 174.481C203.394 175.119 204.761 175.797 206.136 176.462L210.228 178.503C211.603 179.163 212.946 179.875 214.38 180.394C214.38 180.394 221.296 183.82 221.927 175.145C222.553 166.475 215.006 147.763 196.143 149.358ZM199.046 177.529C199.741 178.244 200.347 179.054 200.85 179.939C201.098 180.381 201.311 180.848 201.535 181.311C201.728 181.787 201.886 182.276 202.067 182.76C202.152 183.003 202.221 183.252 202.272 183.506L202.453 184.261C202.575 184.762 202.665 185.273 202.721 185.788L202.815 186.559L202.862 186.945L202.878 187.331L202.926 188.879L202.937 189.265L202.914 189.651L202.862 190.423C202.831 190.937 202.799 191.448 202.748 191.958C202.591 192.97 202.441 193.982 202.24 194.981C201.984 195.967 201.736 196.949 201.452 197.918C201.567 196.902 201.712 195.903 201.858 194.904C201.968 193.9 202.031 192.893 202.138 191.894L202.173 190.388L202.193 189.638L202.205 189.265L202.181 188.892L202.11 187.396L202.094 187.023L202.043 186.654L201.941 185.916C201.71 183.945 201.162 182.034 200.322 180.269C199.887 179.395 199.367 178.574 198.77 177.821C198.175 177.05 197.478 176.38 196.702 175.831C197.572 176.237 198.366 176.812 199.046 177.529V177.529ZM208.976 160.163C208.694 160.809 208.211 161.326 207.613 161.621C207.317 161.768 207.006 161.878 206.687 161.947C206.369 161.996 206.048 162.026 205.726 162.037C205.407 162.02 205.084 162.02 204.769 161.977L203.831 161.81C203.52 161.741 203.221 161.643 202.914 161.557L202.027 161.295C201.45 161.131 200.861 161.016 200.267 160.952C199.063 160.83 197.852 160.826 196.647 160.939C194.213 161.179 191.801 161.635 189.435 162.303C188.245 162.629 187.056 162.981 185.878 163.362C184.693 163.727 183.527 164.147 182.353 164.571C184.584 163.401 186.899 162.427 189.273 161.66C191.653 160.86 194.104 160.333 196.584 160.086C197.839 159.978 199.101 159.998 200.353 160.146C200.984 160.234 201.607 160.376 202.217 160.571L203.969 161.158L204.848 161.364C205.143 161.42 205.439 161.433 205.734 161.475C206.029 161.497 206.325 161.471 206.616 161.463C206.905 161.42 207.189 161.344 207.463 161.235C208.02 161.027 208.491 160.609 208.79 160.056C208.945 159.776 209.062 159.472 209.137 159.156C209.226 158.836 209.273 158.504 209.279 158.169C209.347 158.852 209.243 159.542 208.976 160.163H208.976Z" fill="black"/>
<path d="M139.542 234.25C147.298 234.005 155.054 233.841 162.811 233.758C166.689 233.699 170.567 233.686 174.445 233.652L186.079 233.617L197.713 233.65C201.591 233.686 205.469 233.697 209.348 233.756C217.104 233.839 224.86 234.003 232.616 234.25C224.86 234.497 217.104 234.662 209.348 234.745C205.469 234.804 201.591 234.815 197.713 234.851L186.079 234.884L174.445 234.849C170.567 234.815 166.689 234.802 162.811 234.743C155.054 234.66 147.298 234.495 139.542 234.25ZM162.444 140.237C163.964 140.237 163.967 137.665 162.444 137.665C160.923 137.665 160.921 140.237 162.444 140.237Z" fill="black"/>
</svg>
