<svg width="300" height="350" viewBox="0 0 300 350" fill="none" xmlns="http://www.w3.org/2000/svg">
<path d="M108.332 138.511L108.328 138.511C108.322 138.511 108.316 138.51 108.31 138.507L108.307 138.505C107.797 138.223 107.273 137.973 106.738 137.753C106.207 137.534 105.657 137.321 105.122 137.15L105.165 137.157L105.157 137.157C105.144 137.158 105.131 137.156 105.118 137.152L105.107 137.148C102.28 136.183 99.3454 135.645 96.3841 135.549C94.9083 135.501 93.4311 135.553 91.9611 135.702L87.5053 136.112C84.5338 136.373 81.5567 136.56 78.5811 136.766C75.6048 136.962 72.6297 137.175 69.6589 137.445L69.7225 137.197C70.2481 137.613 70.7291 138.092 71.1561 138.625C71.5785 139.165 71.9386 139.758 72.2282 140.394C72.5084 141.033 72.7305 141.7 72.8913 142.387C73.0436 143.074 73.1414 143.775 73.1834 144.481C73.2557 145.892 73.1685 147.307 72.9239 148.695C72.6925 150.089 72.3294 151.453 71.8403 152.766L71.4865 152.27C73.5768 151.84 75.6665 151.407 77.7596 150.993L84.0363 149.739L83.6934 150.075L83.7388 149.929L83.725 149.969C84.0287 148.923 84.6541 148.023 85.496 147.42C86.3328 146.819 87.3253 146.527 88.3263 146.588C89.3316 146.659 90.2853 147.098 91.0321 147.833C91.1296 147.919 91.2177 148.016 91.2945 148.123L91.537 148.433C91.6824 148.652 91.8165 148.879 91.9386 149.114C92.0547 149.347 92.1339 149.587 92.2325 149.823C92.2785 149.942 92.3286 150.06 92.3708 150.18L92.4743 150.546C92.9738 152.483 93.1659 154.498 93.0421 156.505C92.9599 158.485 92.7047 160.453 92.2797 162.38L91.966 162.037L96.1854 161.077L100.413 160.156C100.424 160.154 100.435 160.156 100.444 160.163C100.453 160.169 100.46 160.179 100.462 160.191C100.465 160.202 100.463 160.214 100.457 160.225C100.452 160.235 100.443 160.242 100.432 160.245L96.262 161.436L92.0844 162.592C92.0424 162.604 91.9984 162.603 91.9564 162.592C91.9144 162.58 91.8758 162.557 91.8442 162.524C91.8126 162.492 91.789 162.452 91.7756 162.407C91.7621 162.362 91.7592 162.314 91.7672 162.268L91.7706 162.249C92.1078 160.347 92.3003 158.418 92.3463 156.481C92.4221 154.57 92.1989 152.659 91.6861 150.829L91.5872 150.494C91.5477 150.387 91.5012 150.283 91.4587 150.176C91.3687 149.969 91.2931 149.746 91.1927 149.551C91.079 149.37 90.9898 149.169 90.8607 149.002L90.6629 148.756C90.6021 148.669 90.5307 148.592 90.4509 148.527C89.8461 147.946 89.0792 147.605 88.2743 147.558C87.4656 147.507 86.6634 147.741 85.9863 148.226C85.312 148.71 84.8074 149.427 84.5542 150.263L84.5403 150.303C84.5382 150.314 84.535 150.325 84.5307 150.336L84.5027 150.405C84.4743 150.474 84.4307 150.535 84.3758 150.582C84.3208 150.628 84.2562 150.659 84.1876 150.672L77.8955 151.832C75.799 152.224 73.6991 152.595 71.5998 152.969C71.5416 152.98 71.4818 152.973 71.4268 152.949C71.3719 152.926 71.3237 152.887 71.2875 152.836C71.2513 152.785 71.2283 152.725 71.221 152.661C71.2137 152.597 71.2223 152.532 71.2459 152.474C71.7448 151.219 72.1338 149.915 72.4078 148.581C72.6928 147.245 72.8209 145.874 72.7892 144.503C72.7686 143.819 72.6941 143.139 72.5666 142.469C72.4315 141.802 72.2284 141.153 71.9611 140.535C71.6887 139.92 71.348 139.343 70.9467 138.818C70.539 138.297 70.0788 137.828 69.5747 137.419L69.5712 137.416C69.5511 137.399 69.5363 137.376 69.5285 137.35C69.5208 137.323 69.5205 137.295 69.5278 137.269C69.535 137.242 69.5495 137.219 69.5692 137.201C69.5889 137.184 69.6129 137.173 69.6382 137.171C72.6095 136.908 75.5768 136.591 78.5424 136.254C81.5088 135.927 84.4738 135.58 87.4444 135.308L91.9016 134.918C93.4019 134.778 94.9093 134.753 96.4128 134.842C97.9157 134.933 99.4101 135.147 100.883 135.482C102.355 135.806 103.801 136.258 105.207 136.833L105.157 136.824L105.165 136.824L105.177 136.824C105.188 136.825 105.198 136.827 105.209 136.831C105.766 137.047 106.287 137.288 106.818 137.546C107.345 137.803 107.857 138.097 108.349 138.426L108.328 138.42L108.332 138.42C108.343 138.421 108.353 138.426 108.36 138.434C108.368 138.443 108.372 138.454 108.372 138.466C108.372 138.477 108.368 138.489 108.36 138.497C108.353 138.505 108.343 138.51 108.332 138.511L108.332 138.511ZM126.553 150.6C126.316 149.305 125.839 148.076 125.152 146.988C124.809 146.466 124.415 145.987 123.977 145.558C123.532 145.136 123.056 144.755 122.553 144.419C121.52 143.762 120.418 143.242 119.27 142.872C118.106 142.489 116.916 142.206 115.711 142.028L115.688 142.026C115.276 141.901 114.866 141.768 114.457 141.626C114.886 141.649 115.313 141.682 115.739 141.723L115.716 141.72C116.974 141.66 118.233 141.791 119.459 142.108C120.703 142.413 121.893 142.937 122.983 143.659C124.094 144.388 125.019 145.409 125.673 146.628C126.301 147.837 126.606 149.213 126.553 150.6V150.6Z" fill="black"/>
<path d="M87.1134 146.865C87.839 146.56 88.5728 146.293 89.3116 146.052C90.0498 145.807 90.7918 145.581 91.5377 145.374C92.2813 145.156 93.0331 144.978 93.782 144.785C94.535 144.613 95.2866 144.434 96.0454 144.289L96.2208 144.256L96.331 144.347C96.642 144.609 96.9291 144.903 97.188 145.225C97.445 145.531 97.6811 145.857 97.8944 146.201C98.1083 146.541 98.3002 146.896 98.4687 147.265C98.6386 147.629 98.7822 148.007 98.8984 148.396C98.6811 148.065 98.4572 147.745 98.227 147.435C97.9934 147.125 97.7578 146.817 97.512 146.536C97.261 146.252 97.0043 145.977 96.7376 145.719C96.477 145.469 96.2041 145.235 95.92 145.018L96.2054 145.077C95.4618 145.294 94.711 145.476 93.9622 145.669C93.2091 145.84 92.459 146.026 91.7007 146.172C90.9449 146.331 90.1849 146.469 89.4209 146.587C88.6578 146.709 87.8897 146.807 87.1134 146.865ZM76.5493 136.69C77.4388 137.586 78.1387 138.681 78.6006 139.9C79.0835 141.119 79.3882 142.413 79.5036 143.735C79.6001 145.054 79.5258 146.38 79.2828 147.676C79.2535 147.837 79.231 147.999 79.196 148.159L79.0717 148.632L78.8108 149.57C78.6001 150.182 78.3536 150.778 78.0951 151.36C78.1792 150.711 78.3181 150.089 78.4149 149.459L78.537 148.513L78.6043 148.044C78.6223 147.887 78.6278 147.729 78.6402 147.571C78.6604 147.256 78.6835 146.942 78.7139 146.63C78.7354 146.317 78.7241 146.002 78.7311 145.689C78.744 145.064 78.7252 144.439 78.6748 143.817C78.569 142.572 78.3413 141.343 77.9955 140.151C77.6471 138.936 77.1613 137.774 76.5493 136.69V136.69Z" fill="black"/>
<path d="M99.1229 146.124C99.7453 145.871 100.372 145.622 101.002 145.386C100.967 145.666 100.948 145.948 100.947 146.231C100.407 146.415 99.8634 146.591 99.3159 146.763C98.9457 146.878 98.5754 146.994 98.2012 147.11C98.15 147.024 98.0988 146.943 98.0476 146.865C97.9964 146.784 97.9413 146.707 97.894 146.634C98.3036 146.458 98.7133 146.291 99.1229 146.124ZM105.331 144.674C104.85 144.854 104.377 145.035 103.897 145.21H103.893C103.743 144.952 103.569 144.712 103.373 144.494L103.55 144.43C104.082 144.241 104.614 144.053 105.145 143.868C105.208 144.16 105.275 144.43 105.331 144.674ZM102.625 141.849C103.416 141.57 104.208 141.291 105.004 141.021C104.918 141.309 104.876 141.61 104.882 141.913C104.216 142.17 103.542 142.415 102.873 142.663C101.388 143.191 99.8949 143.71 98.3903 144.177C97.6931 144.4 96.992 144.613 96.2869 144.816C95.4755 145.052 94.6641 145.275 93.8409 145.468C94.1678 145.309 94.4948 145.15 94.8256 144.996C94.8296 144.996 94.8296 144.996 94.8335 144.992C95.9443 144.477 97.0708 144.001 98.1973 143.542C99.6625 142.942 101.144 142.393 102.625 141.849ZM108.82 140.331C108.753 140.361 108.686 140.391 108.619 140.416C108.447 140.26 108.253 140.134 108.044 140.043C108.257 139.979 108.47 139.915 108.683 139.85C108.734 140.031 108.781 140.194 108.82 140.331ZM71.5439 152.618C62.6514 143.783 69.65 137.31 69.65 137.31C75.8653 142.209 71.5439 152.618 71.5439 152.618ZM92.0245 162.313C84.6866 164.696 84.1123 150.205 84.1123 150.205C84.1209 150.175 84.1296 150.146 84.1384 150.116C85.2417 146.427 89.9709 145.95 91.6024 149.399C93.8132 154.074 92.0245 162.313 92.0245 162.313ZM97.5596 160.582C96.3442 163.842 95.1008 167.069 93.9567 170.325C92.7873 173.541 91.802 176.833 91.0062 180.181C90.8185 181.003 90.6743 181.836 90.5744 182.675C90.4658 183.488 90.4692 184.315 90.5844 185.126C90.6449 185.508 90.7639 185.876 90.9365 186.215C91.1125 186.537 91.3565 186.809 91.6482 187.008C92.3141 187.375 93.0713 187.499 93.8068 187.36C95.3692 187.064 96.8723 186.475 98.2488 185.618C98.5983 185.407 98.9484 185.199 99.2936 184.979L100.314 184.288C101.003 183.843 101.648 183.323 102.309 182.834C102.967 182.34 103.593 181.796 104.235 181.281L105.167 180.464C105.478 180.191 105.797 179.932 106.096 179.645C106.698 179.075 107.324 178.542 107.91 177.953L108.802 177.091L109.671 176.201C110.825 175.01 111.936 173.773 113.002 172.488C114.076 171.213 115.107 169.896 116.113 168.556C118.131 165.871 120.01 163.065 121.741 160.153C122.609 158.693 123.443 157.207 124.241 155.693C125.04 154.181 125.805 152.641 126.502 151.062L126.659 151.122C125.716 154.512 124.446 157.783 122.869 160.881C121.312 164.003 119.515 166.976 117.498 169.768C115.458 172.549 113.194 175.125 110.733 177.466L109.809 178.341L108.859 179.182C108.23 179.747 107.571 180.273 106.913 180.797C106.254 181.319 105.569 181.803 104.89 182.292C104.192 182.751 103.512 183.236 102.801 183.669C102.092 184.103 101.392 184.551 100.669 184.953C99.952 185.365 99.237 185.781 98.5044 186.167C97.0451 186.988 95.4888 187.585 93.8794 187.942C93.0212 188.139 92.1279 188.041 91.323 187.662C90.9075 187.435 90.5479 187.103 90.2746 186.693C90.0175 186.288 89.8212 185.842 89.6931 185.37C89.466 184.465 89.3663 183.528 89.3974 182.59C89.4201 181.681 89.5039 180.775 89.6481 179.879C89.9422 178.119 90.3735 176.389 90.9374 174.709C91.4777 173.031 92.0953 171.393 92.7657 169.783C93.094 168.975 93.451 168.182 93.8103 167.391C94.1667 166.599 94.5425 165.817 94.9294 165.043C95.7003 163.492 96.513 161.967 97.4128 160.497L97.5596 160.582ZM77.9824 139.187C80.2508 138.816 82.5253 138.533 84.8019 138.282C87.0782 138.026 89.3581 137.822 91.6386 137.628C93.9203 137.452 96.2028 137.286 98.4889 137.174C100.775 137.055 103.062 136.969 105.357 136.973C103.088 137.346 100.814 137.628 98.5371 137.879C96.2608 138.136 93.9809 138.339 91.7003 138.532C89.4185 138.707 87.136 138.873 84.8499 138.985C82.5642 139.103 80.2764 139.19 77.9824 139.187Z" fill="black"/>
<path d="M105.843 180.786C105.516 177.637 105.203 174.483 104.922 171.325L104.814 170.141L104.76 169.549C104.755 169.503 104.753 169.443 104.745 169.408C104.735 169.38 104.727 169.351 104.721 169.322C104.694 169.243 104.663 169.165 104.628 169.09C104.307 168.427 103.885 167.763 103.494 167.102C102.695 165.776 101.925 164.418 101.236 163.003C100.895 162.294 100.574 161.57 100.294 160.824C100.016 160.068 99.7837 159.315 99.5427 158.571C99.0587 157.079 98.5789 155.584 98.1171 154.083L97.4163 151.835L97.2411 151.273C97.1728 151.06 97.127 150.84 97.1047 150.616C97.0558 150.16 97.1148 149.698 97.2761 149.275C97.4365 148.823 97.7417 148.451 98.1351 148.226C98.5417 148.031 99.0008 148.011 99.4205 148.17C100.142 148.464 100.801 148.917 101.356 149.499L100.923 149.764C100.822 149 100.758 148.23 100.73 147.458C100.716 147.073 100.714 146.684 100.728 146.298C100.758 145.909 100.773 145.514 100.833 145.129C100.885 144.718 101.019 144.325 101.227 143.977C101.351 143.782 101.534 143.641 101.745 143.578C101.946 143.533 102.155 143.545 102.351 143.614C103.059 143.876 103.653 144.413 104.019 145.122L103.893 145.048H103.897L103.978 145.048L104.022 145.121C104.264 145.543 104.483 145.98 104.678 146.43C104.768 146.644 104.874 146.85 104.995 147.045C105.07 147.141 105.068 147.14 105.174 147.147C105.208 147.15 105.241 147.143 105.271 147.125C105.3 147.108 105.323 147.081 105.338 147.048C105.412 146.843 105.441 146.622 105.424 146.402C105.419 146.161 105.401 145.921 105.372 145.682C105.316 145.2 105.228 144.722 105.111 144.252C104.991 143.774 104.895 143.29 104.822 142.8C104.739 142.3 104.732 141.788 104.803 141.286C104.847 141.025 104.936 140.776 105.065 140.552C105.2 140.325 105.385 140.138 105.603 140.007C106.034 139.778 106.513 139.677 106.99 139.716L106.966 139.717C107.17 139.696 107.375 139.703 107.577 139.739C107.777 139.774 107.973 139.835 108.16 139.919C108.539 140.092 108.867 140.374 109.11 140.734L109.094 140.715C109.126 140.751 109.144 140.799 109.146 140.849L109.143 141.58L108.835 140.929L108.831 140.921L108.827 140.913L108.821 140.892C108.269 139.3 107.897 137.641 107.714 135.952C107.675 135.514 107.681 135.073 107.73 134.637C107.768 134.15 107.961 133.693 108.277 133.347C108.462 133.173 108.687 133.059 108.928 133.018C109.162 132.988 109.398 133.014 109.622 133.094C110.021 133.257 110.385 133.506 110.693 133.826C111.272 134.425 111.781 135.1 112.208 135.834C112.639 136.548 113.034 137.286 113.393 138.045C114.141 139.551 114.731 141.143 115.152 142.791C115.554 144.424 115.933 146.042 116.447 147.603C116.967 149.144 117.593 150.696 118.59 151.82C119.053 152.372 119.672 152.737 120.349 152.858C120.697 152.897 121.048 152.882 121.392 152.812C121.758 152.757 122.12 152.676 122.477 152.57C123.192 152.359 123.881 152.056 124.531 151.668C125.173 151.286 125.766 150.814 126.295 150.264L126.721 149.804L126.947 150.366C127.193 150.998 127.342 151.669 127.389 152.354C127.44 153.017 127.418 153.684 127.324 154.342C127.123 155.643 126.691 156.889 126.051 158.01C125.733 158.579 125.346 159.098 124.901 159.555C124.448 159.993 123.953 160.377 123.425 160.7C122.905 161.018 122.373 161.282 121.885 161.579C121.408 161.83 121 162.213 120.702 162.689C120.454 163.205 120.322 163.779 120.319 164.361C120.281 164.982 120.259 165.607 120.253 166.234C120.238 167.489 120.26 168.748 120.301 170.006C120.346 171.264 120.391 172.523 120.466 173.78C120.547 175.035 120.611 176.299 120.805 177.535L120.729 177.555C120.481 176.314 120.366 175.056 120.233 173.802C120.11 172.546 119.999 171.288 119.923 170.027C119.846 168.766 119.788 167.503 119.767 166.235C119.756 165.601 119.76 164.965 119.78 164.326C119.77 163.644 119.912 162.97 120.193 162.36C120.535 161.779 121.011 161.306 121.574 160.989C122.092 160.661 122.612 160.391 123.097 160.08C123.574 159.775 124.02 159.415 124.427 159.008C124.819 158.59 125.157 158.117 125.432 157.601C126.002 156.561 126.379 155.411 126.545 154.214C126.627 153.624 126.645 153.026 126.597 152.432C126.555 151.856 126.431 151.291 126.23 150.757L126.882 150.86C125.707 152.088 124.266 152.973 122.692 153.432C122.304 153.55 121.909 153.64 121.509 153.702C121.305 153.726 121.118 153.767 120.9 153.776L120.573 153.787C120.463 153.78 120.353 153.766 120.244 153.755C119.38 153.615 118.586 153.155 117.998 152.453C116.851 151.12 116.24 149.487 115.711 147.886C115.196 146.271 114.827 144.618 114.445 142.997C114.348 142.593 114.25 142.19 114.133 141.809C114.013 141.42 113.878 141.033 113.737 140.648C113.454 139.878 113.142 139.117 112.802 138.373C112.466 137.629 112.094 136.904 111.688 136.203C111.297 135.507 110.834 134.864 110.306 134.285C110.061 134.014 109.769 133.799 109.448 133.651C109.304 133.595 109.152 133.571 109 133.583C108.857 133.604 108.721 133.667 108.609 133.765C108.376 134.022 108.232 134.358 108.2 134.717C108.145 135.114 108.13 135.518 108.156 135.919C108.299 137.58 108.628 139.216 109.135 140.79L109.125 140.761L109.129 140.77L108.818 140.85C108.817 140.872 108.821 140.893 108.828 140.913C108.836 140.934 108.847 140.952 108.862 140.967L108.846 140.948C108.645 140.629 108.366 140.377 108.041 140.219C107.715 140.063 107.359 139.997 107.004 140.026L106.988 140.028L106.979 140.028C106.553 139.988 106.124 140.071 105.736 140.268C105.556 140.38 105.402 140.535 105.285 140.721C105.168 140.906 105.091 141.119 105.06 141.342C104.992 141.812 104.995 142.292 105.069 142.761C105.137 143.243 105.228 143.72 105.342 144.192C105.463 144.67 105.556 145.157 105.62 145.648C105.653 145.896 105.674 146.146 105.683 146.396C105.706 146.668 105.667 146.941 105.569 147.192C105.529 147.265 105.473 147.326 105.406 147.37C105.338 147.414 105.262 147.438 105.184 147.442C105.106 147.446 105.028 147.429 104.958 147.392C104.887 147.355 104.826 147.3 104.78 147.231C104.645 147.022 104.526 146.8 104.425 146.569C104.23 146.133 104.012 145.709 103.772 145.3L103.897 145.373L103.893 145.373L103.812 145.374L103.767 145.298C103.44 144.664 102.903 144.19 102.266 143.971C102.136 143.91 101.991 143.901 101.856 143.946C101.721 143.99 101.604 144.085 101.527 144.214C101.364 144.516 101.263 144.852 101.23 145.2C101.183 145.567 101.182 145.937 101.162 146.307C101.159 146.683 101.172 147.056 101.195 147.432C101.244 148.182 101.326 148.928 101.443 149.669L101.564 150.433L101.01 149.934C100.502 149.428 99.9054 149.039 99.2562 148.788C98.9797 148.687 98.6783 148.704 98.4122 148.834C98.1636 148.997 97.9744 149.249 97.8767 149.547C97.7615 149.86 97.7217 150.2 97.7613 150.535C97.7797 150.704 97.8159 150.872 97.8692 151.032L98.0495 151.593L98.7703 153.838C99.2563 155.332 99.7242 156.833 100.188 158.335C100.423 159.088 100.647 159.84 100.902 160.558C101.165 161.281 101.47 161.989 101.796 162.687C102.451 164.083 103.211 165.423 103.974 166.77C104.351 167.452 104.747 168.104 105.086 168.853C105.13 168.956 105.168 169.061 105.2 169.169C105.215 169.236 105.228 169.304 105.239 169.372C105.248 169.434 105.247 169.474 105.251 169.526L105.29 170.118L105.367 171.301C105.578 174.456 105.756 177.615 105.921 180.779L105.843 180.786Z" fill="black"/>
<path d="M110.589 145.467L108.799 140.926L109.167 140.775L110.589 145.467Z" fill="black"/>
<path d="M168.911 129.955C167.459 130.625 165.945 131.188 164.43 131.705C162.907 132.216 161.358 132.635 159.792 132.96C158.218 133.311 156.615 133.485 155.008 133.479C154.192 133.471 153.379 133.38 152.579 133.208C151.755 133.037 150.966 132.704 150.251 132.227L150.286 132.249C149.084 131.595 147.875 130.956 146.679 130.289L146.28 130.066L146.52 129.69C146.549 129.639 146.585 129.594 146.627 129.556C146.648 129.535 146.669 129.516 146.692 129.5C146.728 129.472 146.771 129.437 146.803 129.419C146.869 129.379 146.941 129.33 147.004 129.3C147.134 129.23 147.262 129.171 147.388 129.118C147.643 129.01 147.895 128.915 148.148 128.833C148.653 128.659 149.162 128.527 149.67 128.397C150.686 128.142 151.706 127.926 152.73 127.75C153.752 127.563 154.776 127.398 155.801 127.247C156.826 127.089 157.853 126.957 158.879 126.817L158.74 126.901L160.838 124.287C161.538 123.415 162.213 122.529 162.937 121.666C164.4 119.959 166.095 118.507 167.962 117.359C168.899 116.792 169.872 116.3 170.875 115.886C171.882 115.484 172.912 115.155 173.959 114.901C176.057 114.32 178.23 114.133 180.385 114.347C182.567 114.64 184.647 115.523 186.436 116.914C188.215 118.326 189.665 120.173 190.667 122.307C191.164 123.373 191.551 124.496 191.822 125.654L191.997 126.53C192.046 126.82 192.093 127.108 192.134 127.398C192.219 127.978 192.288 128.561 192.341 129.148C192.456 130.325 192.483 131.511 192.42 132.692C192.361 133.892 192.16 135.079 191.822 136.223L191.686 136.668L191.274 136.533L185.718 134.715L180.146 132.949C178.288 132.36 176.426 131.789 174.556 131.256C173.623 130.982 172.686 130.723 171.746 130.48C171.275 130.373 170.806 130.236 170.331 130.154L169.619 130.016L168.911 129.955ZM168.891 129.862L169.633 129.871L170.358 129.961C170.843 130.017 171.317 130.127 171.798 130.208C172.752 130.399 173.704 130.603 174.651 130.83C176.544 131.288 178.428 131.783 180.308 132.295C182.188 132.807 184.057 133.36 185.928 133.909C187.797 134.466 189.666 135.015 191.527 135.607L190.98 135.917C191.604 133.809 191.6 131.498 191.412 129.247C191.362 128.682 191.296 128.118 191.214 127.555C191.175 127.274 191.13 126.992 191.083 126.713L190.92 125.893C190.677 124.805 190.327 123.748 189.874 122.743C188.956 120.726 187.616 118.972 185.961 117.623C184.291 116.284 182.346 115.41 180.296 115.076C178.214 114.808 176.106 114.918 174.057 115.402C171.978 115.805 169.971 116.566 168.112 117.654C166.252 118.752 164.573 120.177 163.141 121.872C161.749 123.601 160.423 125.424 159.078 127.212L159.027 127.279L158.939 127.295C157.921 127.476 156.902 127.649 155.887 127.846C154.872 128.037 153.858 128.24 152.851 128.465C151.843 128.688 150.839 128.925 149.847 129.193C149.352 129.328 148.859 129.475 148.38 129.639C148.138 129.717 147.903 129.809 147.677 129.905C147.562 129.953 147.454 130.005 147.352 130.06C147.296 130.086 147.26 130.116 147.212 130.142C147.195 130.153 147.179 130.166 147.163 130.179C147.154 130.185 147.146 130.19 147.152 130.187C147.157 130.177 147.137 130.212 147.19 130.128L147.031 129.529C148.235 130.18 149.425 130.859 150.622 131.524L150.641 131.535L150.657 131.546C151.899 132.427 153.487 132.681 155.023 132.741C155.803 132.762 156.583 132.737 157.361 132.666C158.142 132.605 158.922 132.502 159.7 132.37C161.257 132.116 162.797 131.732 164.331 131.318C165.866 130.898 167.376 130.41 168.891 129.862Z" fill="black"/>
<path d="M178.509 116.901C177.763 117.855 176.999 118.782 176.231 119.705L173.93 122.467C173.164 123.386 172.403 124.311 171.649 125.241C170.899 126.178 170.158 127.119 169.423 128.083C169.969 126.979 170.595 125.925 171.296 124.929C171.985 123.925 172.734 122.975 173.499 122.041C174.274 121.118 175.074 120.22 175.907 119.361C176.735 118.492 177.603 117.671 178.509 116.901ZM182.492 117.358C183.109 118.576 183.654 119.836 184.125 121.129C184.604 122.419 185.022 123.734 185.379 125.075C185.734 126.416 186.011 127.78 186.207 129.159C186.403 130.539 186.457 131.938 186.37 133.332C186.232 131.96 186.028 130.596 185.76 129.247C185.488 127.904 185.168 126.573 184.82 125.25C184.477 123.924 184.088 122.613 183.7 121.298C183.3 119.988 182.906 118.672 182.492 117.358ZM158.909 127.056C159.597 127.067 160.284 127.119 160.967 127.213C161.648 127.297 162.323 127.416 162.996 127.543C163.668 127.682 164.338 127.828 165.002 128.011C165.672 128.184 166.332 128.399 166.979 128.654C166.291 128.644 165.604 128.592 164.921 128.498C164.24 128.414 163.566 128.294 162.892 128.167C162.221 128.027 161.55 127.881 160.886 127.698C160.216 127.525 159.556 127.31 158.909 127.056V127.056ZM158.909 132.811C158.92 133.447 158.889 134.083 158.847 134.719C158.81 135.361 158.726 135.999 158.596 136.626C158.531 136.966 158.414 137.29 158.248 137.586C158.1 137.828 157.955 138.111 157.81 138.38C157.519 138.924 157.238 139.478 156.958 140.031C156.391 141.134 155.833 142.242 155.285 143.356C155.016 143.915 154.738 144.469 154.48 145.031C154.351 145.312 154.228 145.595 154.108 145.876C154.049 146.017 153.993 146.158 153.945 146.298C153.923 146.366 153.897 146.438 153.885 146.499C153.876 146.524 153.871 146.551 153.868 146.578C153.868 146.583 153.864 146.609 153.864 146.597C153.864 146.587 153.861 146.576 153.856 146.567C153.852 146.558 153.845 146.55 153.836 146.544L153.73 146.463C153.928 146.514 154.133 146.535 154.337 146.525C154.555 146.515 154.771 146.484 154.984 146.43C155.2 146.375 155.413 146.305 155.622 146.221C155.832 146.134 156.038 146.034 156.239 145.922L156.268 145.906L156.288 145.91C156.492 145.952 156.684 146.049 156.846 146.191C157 146.333 157.111 146.523 157.162 146.736C157.085 146.544 156.956 146.381 156.792 146.272C156.635 146.164 156.457 146.1 156.272 146.084L156.321 146.072C155.935 146.364 155.512 146.595 155.067 146.759C154.838 146.839 154.603 146.896 154.365 146.928C154.113 146.966 153.856 146.957 153.607 146.901L153.535 146.883L153.5 146.819C153.472 146.767 153.453 146.71 153.443 146.651C153.439 146.619 153.439 146.586 153.442 146.553C153.443 146.501 153.449 146.449 153.461 146.398C153.476 146.312 153.497 146.227 153.521 146.143C153.566 145.982 153.617 145.829 153.67 145.677C153.776 145.374 153.896 145.081 154.018 144.79C154.262 144.209 154.515 143.635 154.786 143.071C155.318 141.938 155.887 140.829 156.473 139.729C156.771 139.182 157.074 138.639 157.386 138.1C157.546 137.829 157.702 137.568 157.891 137.294C158.038 137.053 158.149 136.789 158.219 136.51C158.531 135.297 158.761 134.061 158.909 132.811V132.811Z" fill="black"/>
<path d="M160.376 148.317C158.699 145.502 156.28 146.736 156.28 146.736C156.28 146.736 155.345 160.716 161.075 161.096C165.436 161.386 169.188 158.503 171.826 155.399C173.192 153.783 174.057 151.74 174.297 149.56C174.655 146.376 175.193 141.565 175.33 140.178C175.539 138.048 176.332 132.471 179.173 132.811C179.173 132.811 185.112 132.875 182.038 144.057C182.038 144.057 181.199 151.055 186.649 150.219C186.649 150.219 185.531 146.72 186.999 144.057C188.466 141.395 190.395 138.029 190.304 135.718C190.304 135.718 171.067 129.528 168.901 129.909C170.234 130.675 171.307 131.886 171.961 133.365C172.615 134.844 172.816 136.512 172.535 138.124C171.895 142.646 168.821 148.714 167.395 151.345C167.169 151.765 166.842 152.11 166.45 152.344C166.059 152.577 165.616 152.691 165.169 152.673C164.343 152.637 163.395 152.505 162.944 152.12C162.053 151.36 160.376 148.317 160.376 148.317Z" fill="black"/>
<path d="M160.171 134.907C160.579 134.564 161.046 134.315 161.545 134.173C162.053 134.017 162.583 133.969 163.107 134.031C163.642 134.101 164.152 134.322 164.585 134.672C165.006 135.014 165.329 135.479 165.517 136.013C165.163 135.652 164.768 135.342 164.342 135.09C163.933 134.863 163.49 134.717 163.034 134.66C162.568 134.603 162.097 134.602 161.63 134.657C161.152 134.711 160.67 134.796 160.171 134.907ZM176.657 142.688C177.594 143.088 178.678 143.043 179.372 142.373C179.721 142.036 180.001 141.62 180.191 141.155C180.395 140.677 180.559 140.18 180.68 139.669C180.95 138.64 181.11 137.579 181.156 136.51C181.178 135.973 181.165 135.435 181.119 134.9C181.096 134.631 181.06 134.364 181.012 134.099C180.99 133.965 180.959 133.834 180.926 133.703C180.901 133.57 180.851 133.444 180.78 133.332C180.955 133.537 181.087 133.781 181.166 134.048C181.26 134.309 181.338 134.575 181.401 134.847C181.52 135.392 181.59 135.949 181.611 136.509C181.648 137.634 181.523 138.757 181.241 139.84C180.961 140.891 180.553 142.055 179.645 142.766C179.199 143.114 178.655 143.282 178.107 143.242C177.586 143.204 177.085 143.013 176.657 142.688V142.688ZM169.879 157.429C170.221 157.657 170.538 157.928 170.822 158.236C171.108 158.536 171.372 158.86 171.61 159.206C171.852 159.554 172.061 159.929 172.233 160.324C172.433 160.722 172.514 161.178 172.465 161.629C172.297 161.252 172.088 160.9 171.843 160.578C171.612 160.247 171.371 159.923 171.144 159.585C170.913 159.25 170.689 158.906 170.474 158.551C170.251 158.194 170.052 157.818 169.879 157.429V157.429ZM186.649 150.219C187.02 150.842 187.357 151.488 187.66 152.153C187.812 152.471 187.964 152.785 188.134 153.084C188.302 153.399 188.508 153.689 188.746 153.946C188.376 153.89 188.035 153.696 187.782 153.397C187.523 153.121 187.308 152.8 187.144 152.448C186.98 152.106 186.853 151.744 186.767 151.369C186.673 150.995 186.633 150.607 186.649 150.219V150.219Z" fill="black"/>
<path d="M195.176 148.619C195.176 148.619 188.436 149.155 187.298 152.084L187.503 152.504L188.255 152.084C191.871 150.124 193.915 152.727 191.402 153.186C188.885 153.64 173.898 161.114 173.898 161.114C167.399 163.116 163.59 173.875 163.59 173.875C164.638 173.386 165.705 172.948 166.765 172.481C167.852 172.099 168.931 171.688 170.03 171.349C172.237 170.671 174.487 170.173 176.762 169.861C179.04 169.542 181.342 169.464 183.635 169.63C184.206 169.698 184.777 169.737 185.348 169.827C185.912 169.934 186.483 170.007 187.042 170.153C188.167 170.393 189.263 170.775 190.307 171.289C189.221 170.935 188.107 170.693 186.979 170.564C186.42 170.47 185.852 170.44 185.293 170.384C184.73 170.346 184.167 170.324 183.603 170.294C181.348 170.257 179.093 170.396 176.856 170.71L175.178 170.946L173.508 171.268L172.673 171.418L171.846 171.615C171.291 171.748 170.739 171.876 170.184 172.001C169.081 172.28 167.986 172.597 166.879 172.884C165.784 173.21 164.697 173.57 163.59 173.875C146.543 176.919 129.909 188.329 128.794 188.025C127.676 187.72 126.695 178.137 126.695 175.671C126.695 173.21 126.277 168.549 122.921 168.549C119.57 168.549 119.987 171.744 119.987 171.744C126.277 173.57 111.743 174.942 107.41 175.547C103.078 176.156 105.453 174.333 105.453 174.333C105.453 174.333 104.196 172.871 102.849 174.689C102.429 175.276 102.145 175.964 102.023 176.696C101.901 177.428 101.944 178.182 102.148 178.891C102.577 180.452 103.211 182.819 103.637 184.676C104.338 187.72 106.851 209.627 107.69 211.758C108.529 213.885 125.856 219.515 162.751 216.625C165.741 216.114 168.718 215.574 171.696 215.034C174.67 214.481 177.644 213.915 180.594 213.259C182.071 212.937 183.548 212.603 185.01 212.221C186.479 211.856 187.936 211.452 189.382 211.007C190.828 210.565 192.253 210.044 193.651 209.447C195.067 208.892 196.386 208.079 197.551 207.041C197.038 207.653 196.449 208.184 195.802 208.619C195.162 209.069 194.496 209.474 193.809 209.833C192.429 210.532 191.011 211.138 189.563 211.646C186.671 212.647 183.729 213.465 180.752 214.099C177.778 214.742 174.79 215.274 171.787 215.694C168.785 216.127 165.772 216.444 162.751 216.625C162.751 216.625 161.408 225.513 160.707 233.51H213.259C213.204 225.702 213.192 215.355 213.413 206.051C213.83 188.102 213.413 179.655 213.413 179.655C212.657 179.564 211.911 179.397 211.183 179.157C210.455 178.93 209.742 178.66 209.029 178.381C207.607 177.824 206.22 177.172 204.842 176.503C203.471 175.821 202.116 175.11 200.781 174.342C199.445 173.583 198.126 172.781 196.85 171.898C198.272 172.464 199.662 173.094 201.045 173.742C202.427 174.381 203.794 175.058 205.169 175.723L209.261 177.764C210.636 178.424 211.979 179.136 213.413 179.655C213.413 179.655 220.329 183.081 220.959 174.406C221.586 165.736 214.039 147.024 195.176 148.619ZM198.079 176.79C198.774 177.505 199.38 178.315 199.883 179.2C200.131 179.642 200.344 180.109 200.568 180.572C200.761 181.048 200.919 181.537 201.1 182.022C201.185 182.264 201.254 182.514 201.305 182.768L201.486 183.522C201.608 184.024 201.697 184.534 201.754 185.049L201.848 185.821L201.895 186.206L201.911 186.592L201.958 188.14L201.97 188.526L201.947 188.912L201.895 189.684C201.864 190.198 201.832 190.709 201.781 191.219C201.624 192.231 201.474 193.243 201.273 194.242C201.017 195.228 200.769 196.21 200.485 197.179C200.6 196.163 200.745 195.164 200.891 194.165C201.001 193.161 201.064 192.154 201.171 191.155L201.206 189.65L201.226 188.899L201.238 188.526L201.214 188.153L201.143 186.657L201.127 186.284L201.076 185.915L200.974 185.177C200.743 183.206 200.195 181.295 199.355 179.53C198.92 178.656 198.4 177.835 197.803 177.082C197.208 176.311 196.511 175.641 195.735 175.092C196.605 175.498 197.399 176.073 198.079 176.79V176.79ZM208.009 159.425C207.727 160.07 207.244 160.587 206.646 160.882C206.35 161.029 206.039 161.139 205.72 161.208C205.401 161.257 205.081 161.288 204.759 161.298C204.44 161.281 204.117 161.281 203.802 161.238L202.864 161.071C202.553 161.002 202.254 160.904 201.947 160.818L201.06 160.557C200.483 160.392 199.894 160.278 199.3 160.213C198.096 160.091 196.884 160.087 195.68 160.201C193.246 160.44 190.834 160.896 188.468 161.564C187.278 161.89 186.089 162.242 184.911 162.623C183.726 162.988 182.56 163.408 181.386 163.832C183.617 162.662 185.932 161.688 188.306 160.921C190.686 160.122 193.136 159.594 195.617 159.347C196.872 159.239 198.134 159.259 199.386 159.407C200.017 159.496 200.64 159.638 201.249 159.832L203.002 160.419L203.881 160.625C204.176 160.681 204.471 160.694 204.767 160.737C205.062 160.758 205.358 160.732 205.649 160.724C205.938 160.682 206.222 160.605 206.496 160.496C207.053 160.288 207.524 159.87 207.823 159.317C207.978 159.037 208.095 158.734 208.17 158.417C208.259 158.097 208.306 157.765 208.312 157.431C208.38 158.113 208.275 158.803 208.009 159.425H208.009Z" fill="black"/>
<path d="M138.575 233.512C146.331 233.267 154.087 233.102 161.844 233.019C165.722 232.96 169.6 232.947 173.478 232.913L185.112 232.878L196.746 232.911C200.624 232.947 204.502 232.958 208.381 233.017C216.137 233.1 223.893 233.265 231.649 233.512C223.893 233.758 216.137 233.923 208.381 234.006C204.502 234.065 200.624 234.076 196.746 234.112L185.112 234.145L173.478 234.11C169.6 234.076 165.722 234.063 161.844 234.004C154.087 233.921 146.331 233.757 138.575 233.512ZM161.477 139.498C162.997 139.498 163 136.926 161.477 136.926C159.956 136.926 159.954 139.498 161.477 139.498Z" fill="black"/>
<rect x="0.5" y="0.5" width="299" height="349" rx="5.5" stroke="#CFCFCF"/>
</svg>
