<svg width="19" height="21" viewBox="0 0 19 21" fill="none" xmlns="http://www.w3.org/2000/svg">
<path d="M8.759 21H1.9C1.39609 21 0.912816 20.8025 0.556497 20.4508C0.200178 20.0992 0 19.6223 0 19.125V3.375C0 2.87772 0.200178 2.40081 0.556497 2.04917C0.912816 1.69754 1.39609 1.5 1.9 1.5H3.8V2.25H1.9C1.59765 2.25 1.30769 2.36853 1.0939 2.5795C0.880107 2.79048 0.76 3.07663 0.76 3.375V19.125C0.76 19.4234 0.880107 19.7095 1.0939 19.9205C1.30769 20.1315 1.59765 20.25 1.9 20.25H8.759V21ZM15.96 3.375C15.96 2.87772 15.7598 2.40081 15.4035 2.04917C15.0472 1.69754 14.5639 1.5 14.06 1.5H12.16V2.25H14.06C14.3623 2.25 14.6523 2.36853 14.8661 2.5795C15.0799 2.79048 15.2 3.07663 15.2 3.375V9H15.96V3.375ZM7.5772 18.75H2.28V3.75H3.8V3H1.9C1.79922 3 1.70256 3.03951 1.6313 3.10983C1.56004 3.18016 1.52 3.27554 1.52 3.375V19.125C1.52 19.2245 1.56004 19.3198 1.6313 19.3902C1.70256 19.4605 1.79922 19.5 1.9 19.5H7.5772V18.75ZM14.44 3.375C14.44 3.27554 14.4 3.18016 14.3287 3.10983C14.2574 3.03951 14.1608 3 14.06 3H12.16V3.75H13.68V9H14.44V3.375ZM11.4 4.875V1.875C11.4 1.77554 11.36 1.68016 11.2887 1.60983C11.2174 1.53951 11.1208 1.5 11.02 1.5H9.5C9.5 1.10218 9.33986 0.720644 9.0548 0.43934C8.76975 0.158035 8.38313 0 7.98 0C7.57687 0 7.19025 0.158035 6.9052 0.43934C6.62014 0.720644 6.46 1.10218 6.46 1.5H4.94C4.83922 1.5 4.74256 1.53951 4.6713 1.60983C4.60004 1.68016 4.56 1.77554 4.56 1.875V4.875C4.56 4.97446 4.60004 5.06984 4.6713 5.14016C4.74256 5.21049 4.83922 5.25 4.94 5.25H11.02C11.1208 5.25 11.2174 5.21049 11.2887 5.14016C11.36 5.06984 11.4 4.97446 11.4 4.875ZM5.32 2.25H6.84C6.94078 2.25 7.03744 2.21049 7.1087 2.14016C7.17996 2.06984 7.22 1.97446 7.22 1.875V1.5C7.22 1.30109 7.30007 1.11032 7.4426 0.96967C7.58513 0.829017 7.77844 0.75 7.98 0.75C8.18156 0.75 8.37487 0.829017 8.5174 0.96967C8.65993 1.11032 8.74 1.30109 8.74 1.5V1.875C8.74 1.97446 8.78004 2.06984 8.8513 2.14016C8.92256 2.21049 9.01922 2.25 9.12 2.25H10.64V4.5H5.32V2.25ZM9.12 3H6.84V3.75H9.12V3ZM12.16 7.125H8.36V7.875H12.16V7.125ZM12.16 9.375H8.36V10.125H12.16V9.375ZM5.2098 9.26625L6.7298 7.76625L6.1902 7.23375L4.8906 8.51625L4.009 7.93875L3.591 8.56125L4.731 9.31125C4.79196 9.35401 4.86522 9.37636 4.94 9.375C4.99001 9.37528 5.03959 9.36582 5.08588 9.34716C5.13218 9.3285 5.17429 9.301 5.2098 9.26625V9.26625ZM5.2098 12.2662L6.7298 10.7662L6.1902 10.2337L4.8906 11.5162L4.009 10.9387L3.591 11.5612L4.731 12.3112C4.79196 12.354 4.86522 12.3764 4.94 12.375C4.99001 12.3753 5.03959 12.3658 5.08588 12.3472C5.13218 12.3285 5.17429 12.301 5.2098 12.2662ZM5.2098 15.2662L6.7298 13.7662L6.1902 13.2337L4.8906 14.5162L4.009 13.9387L3.591 14.5612L4.731 15.3112C4.79196 15.354 4.86522 15.3764 4.94 15.375C4.99001 15.3753 5.03959 15.3658 5.08588 15.3472C5.13218 15.3285 5.17429 15.301 5.2098 15.2662ZM17.48 16.125C17.48 16.0255 17.44 15.9302 17.3687 15.8598C17.2974 15.7895 17.2008 15.75 17.1 15.75H12.92V11.625C12.92 11.5255 12.88 11.4302 12.8087 11.3598C12.7374 11.2895 12.6408 11.25 12.54 11.25C11.563 11.25 10.6079 11.5359 9.79548 12.0716C8.9831 12.6073 8.34993 13.3686 7.97604 14.2594C7.60214 15.1502 7.50431 16.1304 7.69492 17.0761C7.88553 18.0217 8.35602 18.8904 9.04689 19.5721C9.73776 20.2539 10.618 20.7182 11.5763 20.9063C12.5345 21.0944 13.5278 20.9979 14.4305 20.6289C15.3331 20.2599 16.1046 19.6351 16.6475 18.8334C17.1903 18.0317 17.48 17.0892 17.48 16.125V16.125ZM12.16 16.125C12.16 16.2245 12.2 16.3198 12.2713 16.3902C12.3426 16.4605 12.4392 16.5 12.54 16.5H16.72C16.6443 17.2787 16.3458 18.0201 15.8593 18.6378C15.3728 19.2554 14.7183 19.7238 13.9723 19.9882C13.2263 20.2527 12.4194 20.3024 11.6459 20.1315C10.8723 19.9606 10.1639 19.5761 9.60339 19.023C9.04286 18.4698 8.65327 17.7708 8.48008 17.0074C8.30689 16.244 8.35723 15.4477 8.62524 14.7115C8.89325 13.9753 9.36787 13.3295 9.99374 12.8494C10.6196 12.3693 11.3709 12.0747 12.16 12V16.125ZM19 14.625C19 13.3321 18.4795 12.0921 17.5531 11.1779C16.6267 10.2636 15.3702 9.75 14.06 9.75C13.9592 9.75 13.8626 9.78951 13.7913 9.85983C13.72 9.93016 13.68 10.0255 13.68 10.125V14.625C13.68 14.7245 13.72 14.8198 13.7913 14.8902C13.8626 14.9605 13.9592 15 14.06 15H18.62C18.7208 15 18.8174 14.9605 18.8887 14.8902C18.96 14.8198 19 14.7245 19 14.625ZM14.44 10.5C15.4191 10.5845 16.3367 11.0067 17.0316 11.6925C17.7265 12.3783 18.1544 13.2838 18.24 14.25H14.44V10.5Z" fill="#7BC950"/>
</svg>
